<svg xmlns="http://www.w3.org/2000/svg" viewBox="0 0 220.00 104.00" data-guides="{&quot;vertical&quot;:[],&quot;horizontal&quot;:[]}"><path fill="url(#tSvgGradient11452c5a9ca)" stroke="none" fill-opacity="1" stroke-width="1" stroke-opacity="1" id="tSvg122c9b3a965" title="Path 8" d="M137.6734 17.2937C125.3206 17.2937 115.479 24.4204 115.479 35.7552C115.479 48.108 124.0988 52.5198 135.9766 55.099C137.4246 55.4157 138.8725 55.7324 140.3205 56.0492C148.8046 57.8818 153.0806 60.4609 153.0806 66.7731C153.0806 73.1532 147.7865 77.9043 138.8952 77.9043C127.9676 77.9043 121.9269 72.1351 121.9269 61.5469C121.9269 60.8003 121.9269 60.0537 121.9269 59.3071C118.7595 59.3071 115.5921 59.3071 112.4247 59.3071C112.4247 60.3252 112.4247 61.3433 112.4247 62.3614C112.4247 76.9541 122.6056 86.4563 138.8273 86.4563C152.5376 86.4563 162.5828 78.7867 162.5828 66.5016C162.5828 55.099 155.0489 49.8049 142.696 47.1578C141.2481 46.8411 139.8001 46.5243 138.3522 46.2076C128.9178 44.1035 124.9812 41.728 124.9812 35.6194C124.9812 29.7145 130.2753 25.8457 137.6734 25.8457C146.4291 25.8457 152.5376 30.3932 152.5376 38.9452C152.5376 39.7144 152.5376 40.4836 152.5376 41.2529C155.705 41.2529 158.8725 41.2529 162.0399 41.2529C162.0399 40.2348 162.0399 39.2167 162.0399 38.1986C162.0399 24.624 151.4517 17.2937 137.6734 17.2937ZM173.5783 18.6512C173.5783 40.823 173.5783 62.9949 173.5783 85.1667C176.7457 85.1667 179.9131 85.1667 183.0805 85.1667C183.0805 76.298 183.0805 67.4292 183.0805 58.5605C188.533 58.5605 193.9854 58.5605 199.4379 58.5605C211.3157 58.5605 220.0034 50.6193 220.0034 38.6058C220.0034 26.5244 211.5872 18.6512 199.4379 18.6512C190.818 18.6512 182.1981 18.6512 173.5783 18.6512ZM183.0805 27.3389C188.1936 27.3389 193.3067 27.3389 198.4198 27.3389C206.2931 27.3389 210.5012 31.3434 210.5012 38.6058C210.5012 45.8004 206.0895 49.8049 198.4198 49.8049C193.3067 49.8049 188.1936 49.8049 183.0805 49.8049C183.0805 42.3162 183.0805 34.8276 183.0805 27.3389Z"/><path fill="url(#tSvgGradientc1fb5b55cc)" stroke="none" fill-opacity="1" stroke-width="1" stroke-opacity="1" id="tSvg3896b36d5" title="Path 9" d="M41.0687 103.747C28.1007 103.747 15.1327 103.747 2.1648 103.747C0.9711 103.747 0.0034 102.7793 0.0034 101.5856C0.0034 85.7359 0.0034 69.8861 0.0034 54.0363C0.0034 52.3725 1.8045 51.3327 3.2454 52.1646C3.9141 52.5506 4.3261 53.2642 4.3261 54.0363C4.3261 69.1656 4.3261 84.295 4.3261 99.4243C15.8532 99.4243 27.3803 99.4243 38.9074 99.4243C38.9074 84.295 38.9074 69.1656 38.9074 54.0363C38.9074 52.3725 40.7085 51.3327 42.1494 52.1646C42.8181 52.5506 43.2301 53.2642 43.2301 54.0363C43.2301 69.8861 43.2301 85.7359 43.2301 101.5856C43.2301 102.7793 42.2624 103.747 41.0687 103.747Z"/><path fill="url(#tSvgGradient10ba8a69b1e)" stroke="none" fill-opacity="1" stroke-width="1" stroke-opacity="1" id="tSvgf2295b207a" title="Path 10" d="M8.6487 56.1977C6.4874 56.1977 4.3261 56.1977 2.1648 56.1977C0.501 56.1977 -0.5389 54.3965 0.293 52.9557C0.3362 52.8808 0.3838 52.8087 0.4357 52.7395C2.597 49.8578 4.7583 46.976 6.9197 44.0942C7.918 42.7615 9.9846 43.0092 10.6396 44.5401C10.9436 45.2506 10.8454 46.0693 10.3821 46.6878C9.0839 48.4169 7.7857 50.1459 6.4874 51.875C7.2079 51.875 7.9283 51.875 8.6487 51.875C10.3125 51.875 11.3524 53.6761 10.5205 55.117C10.1344 55.7857 9.4209 56.1977 8.6487 56.1977ZM41.0687 56.1977C38.9074 56.1977 36.7461 56.1977 34.5847 56.1977C32.9209 56.1977 31.8811 54.3965 32.713 52.9557C33.099 52.2869 33.8126 51.875 34.5847 51.875C35.3052 51.875 36.0256 51.875 36.7461 51.875C35.4493 50.1459 34.1525 48.4169 32.8557 46.6878C31.8574 45.3551 32.6761 43.4415 34.3294 43.2433C35.0967 43.1513 35.8548 43.4757 36.3181 44.0942C38.4794 46.976 40.6408 49.8578 42.8021 52.7395C43.8004 54.0706 42.9834 55.9831 41.3316 56.1821C41.2444 56.1927 41.1566 56.1978 41.0687 56.1977ZM28.1007 56.1977C26.9071 56.1977 25.9394 55.23 25.9394 54.0363C25.9394 50.4341 25.9394 46.8319 25.9394 43.2297C25.7905 39.9021 22.0953 37.9835 19.2879 39.7762C18.1009 40.5342 17.357 41.8226 17.2941 43.2297C17.2941 46.8319 17.2941 50.4341 17.2941 54.0363C17.2941 55.7001 15.493 56.74 14.0521 55.9081C13.3834 55.522 12.9714 54.8085 12.9714 54.0363C12.9714 50.4341 12.9714 46.8319 12.9714 43.2297C12.9714 38.4618 16.8488 34.5843 21.6167 34.5843C26.3846 34.5843 30.2621 38.4618 30.2621 43.2297C30.2621 46.8319 30.2621 50.4341 30.2621 54.0363C30.2621 55.23 29.2944 56.1977 28.1007 56.1977ZM75.65 64.843C74.4564 64.843 73.4887 63.8753 73.4887 62.6817C73.4887 60.5203 73.4887 58.359 73.4887 56.1977C73.3398 52.8701 69.6446 50.9515 66.8372 52.7442C65.6502 53.5022 64.9063 54.7906 64.8434 56.1977C64.8434 58.359 64.8434 60.5203 64.8434 62.6817C64.8434 64.3454 63.0423 65.3853 61.6014 64.5534C60.9327 64.1673 60.5207 63.4538 60.5207 62.6817C60.5207 60.5203 60.5207 58.359 60.5207 56.1977C60.5207 51.4298 64.3981 47.5523 69.166 47.5523C73.9339 47.5523 77.8114 51.4298 77.8114 56.1977C77.8114 58.359 77.8114 60.5203 77.8114 62.6817C77.8114 63.8753 76.8437 64.843 75.65 64.843Z"/><path fill="url(#tSvgGradient103b2a7003e)" stroke="none" fill-opacity="1" stroke-width="1" stroke-opacity="1" id="tSvgce641b0cd8" title="Path 11" d="M97.2633 95.1016C78.5318 95.1016 59.8003 95.1016 41.0687 95.1016C39.875 95.1016 38.9074 94.134 38.9074 92.9403C38.9074 81.4132 38.9074 69.8861 38.9074 58.359C38.9074 57.1653 39.875 56.1977 41.0687 56.1977C46.1118 56.1977 51.1549 56.1977 56.198 56.1977C57.8618 56.1977 58.9017 57.9988 58.0698 59.4397C57.6837 60.1084 56.9702 60.5203 56.198 60.5203C51.8754 60.5203 47.5527 60.5203 43.2301 60.5203C43.2301 70.6065 43.2301 80.6928 43.2301 90.779C60.5207 90.779 77.8114 90.779 95.102 90.779C95.102 80.6928 95.102 70.6065 95.102 60.5203C90.7793 60.5203 86.4567 60.5203 82.134 60.5203C80.4702 60.5203 79.4304 58.7192 80.2623 57.2783C80.6483 56.6096 81.3619 56.1977 82.134 56.1977C87.1771 56.1977 92.2202 56.1977 97.2633 56.1977C98.457 56.1977 99.4247 57.1653 99.4247 58.359C99.4247 69.8861 99.4247 81.4132 99.4247 92.9403C99.4247 94.134 98.457 95.1016 97.2633 95.1016ZM88.618 51.875C87.4243 51.875 86.4567 50.9073 86.4567 49.7137C86.4567 38.907 86.4567 28.1003 86.4567 17.2937C70.6069 17.2937 54.7572 17.2937 38.9074 17.2937C38.9074 23.7777 38.9074 30.2617 38.9074 36.7457C38.9074 38.4095 37.1063 39.4493 35.6654 38.6174C34.9967 38.2314 34.5847 37.5178 34.5847 36.7457C34.5847 29.5412 34.5847 22.3368 34.5847 15.1324C34.5847 13.9387 35.5524 12.971 36.7461 12.971C54.0367 12.971 71.3274 12.971 88.618 12.971C89.8117 12.971 90.7793 13.9387 90.7793 15.1324C90.7793 26.6595 90.7793 38.1866 90.7793 49.7137C90.7793 50.9073 89.8117 51.875 88.618 51.875Z"/><path fill="url(#tSvgGradient2b5189ce8a)" stroke="none" fill-opacity="1" stroke-width="1" stroke-opacity="1" id="tSvg6706de049d" title="Path 12" d="M92.9407 17.2937C72.7683 17.2937 52.5958 17.2937 32.4234 17.2937C31.2297 17.2937 30.2621 16.326 30.2621 15.1324C30.2621 10.8097 30.2621 6.487 30.2621 2.1644C30.2621 0.9707 31.2297 0.003 32.4234 0.003C52.5958 0.003 72.7683 0.003 92.9407 0.003C94.1344 0.003 95.102 0.9707 95.102 2.1644C95.102 6.487 95.102 10.8097 95.102 15.1324C95.102 16.326 94.1344 17.2937 92.9407 17.2937ZM34.5847 12.971C53.3163 12.971 72.0478 12.971 90.7793 12.971C90.7793 10.0893 90.7793 7.2075 90.7793 4.3257C72.0478 4.3257 53.3163 4.3257 34.5847 4.3257C34.5847 7.2075 34.5847 10.0893 34.5847 12.971Z"/><path fill="url(#tSvgGradient52e2901677)" stroke="none" fill-opacity="1" stroke-width="1" stroke-opacity="1" id="tSvg11c51b82eb7" title="Path 13" d="M62.682 43.2297C61.4884 43.2297 60.5207 42.262 60.5207 41.0683C60.5207 28.1003 60.5207 15.1324 60.5207 2.1644C60.5207 0.5006 62.3218 -0.5393 63.7627 0.2926C64.4314 0.6787 64.8434 1.3922 64.8434 2.1644C64.8434 15.1324 64.8434 28.1003 64.8434 41.0683C64.8434 42.262 63.8757 43.2297 62.682 43.2297Z"/><path fill="url(#tSvgGradientefbd229592)" stroke="none" fill-opacity="1" stroke-width="1" stroke-opacity="1" id="tSvg18025c4ec38" title="Path 14" d="M88.618 34.5843C71.3274 34.5843 54.0367 34.5843 36.7461 34.5843C35.0823 34.5843 34.0424 32.7832 34.8743 31.3423C35.2604 30.6736 35.9739 30.2617 36.7461 30.2617C54.0367 30.2617 71.3274 30.2617 88.618 30.2617C90.2818 30.2617 91.3217 32.0628 90.4898 33.5037C90.1037 34.1724 89.3902 34.5843 88.618 34.5843ZM62.682 54.0363C54.0367 54.0363 45.3914 54.0363 36.7461 54.0363C35.0823 54.0363 34.0424 52.2352 34.8743 50.7943C35.2604 50.1256 35.9739 49.7137 36.7461 49.7137C45.3914 49.7137 54.0367 49.7137 62.682 49.7137C64.3458 49.7137 65.3857 51.5148 64.5538 52.9557C64.1677 53.6244 63.4542 54.0363 62.682 54.0363Z"/><defs><linearGradient id="tSvgGradient15a87fe0169" x1="206.210693359375" x2="206.210693359375" y1="184.58154296875" y2="115.41845703125" fill="rgb(0, 0, 0)" transform="matrix(0.906308, 0.422618, -0.422618, 0.906308, 0, 0)" data-v-fde0c5aa="" gradientTransform="" gradientUnits="userSpaceOnUse"><stop offset="0" stop-color="hsl(0,0%,0%)" stop-opacity="1" transform="translate(-5000, -5000)"/><stop offset="1" stop-color="hsl(0,0%,63.13999999999999%)" stop-opacity="1" transform="translate(-5000, -5000)"/></linearGradient><linearGradient id="tSvgGradient16d2651e31e" x1="61.61328125" x2="61.61328125" y1="201.8720703125" y2="149.99658203125" fill="rgb(0, 0, 0)" transform="matrix(0.906308, 0.422618, -0.422618, 0.906308, 0, 0)" data-v-fde0c5aa="" gradientTransform="" gradientUnits="userSpaceOnUse"><stop offset="0" stop-color="hsl(0,0%,63.13999999999999%)" stop-opacity="1" transform="translate(-5000, -5000)"/><stop offset="1" stop-color="hsl(0,0%,0%)" stop-opacity="1" transform="translate(-5000, -5000)"/></linearGradient><linearGradient id="tSvgGradientd495137657" x1="78.90234375" x2="78.90234375" y1="162.97119140625" y2="132.70947265625" fill="rgb(0, 0, 0)" transform="matrix(0.906308, 0.422618, -0.422618, 0.906308, 0, 0)" data-v-fde0c5aa="" gradientTransform="" gradientUnits="userSpaceOnUse"><stop offset="0" stop-color="hsl(0,0%,63.13999999999999%)" stop-opacity="1" transform="translate(-5000, -5000)"/><stop offset="1" stop-color="hsl(0,0%,0%)" stop-opacity="1" transform="translate(-5000, -5000)"/></linearGradient><linearGradient id="tSvgGradient12040921980" x1="107.00146484375" x2="107.00146484375" y1="193.2265625" y2="111.09619140625" fill="rgb(0, 0, 0)" transform="matrix(0.906308, 0.422618, -0.422618, 0.906308, 0, 0)" data-v-fde0c5aa="" gradientTransform="" gradientUnits="userSpaceOnUse"><stop offset="0" stop-color="hsl(0,0%,63.13999999999999%)" stop-opacity="1" transform="translate(-5000, -5000)"/><stop offset="1" stop-color="hsl(0,0%,0%)" stop-opacity="1" transform="translate(-5000, -5000)"/></linearGradient><linearGradient id="tSvgGradient12065e48fab" x1="102.6787109375" x2="102.6787109375" y1="115.41845703125" y2="98.1279296875" fill="rgb(0, 0, 0)" transform="matrix(0.906308, 0.422618, -0.422618, 0.906308, 0, 0)" data-v-fde0c5aa="" gradientTransform="" gradientUnits="userSpaceOnUse"><stop offset="0" stop-color="hsl(0,0%,63.13999999999999%)" stop-opacity="1" transform="translate(-5000, -5000)"/><stop offset="1" stop-color="hsl(0,0%,0%)" stop-opacity="1" transform="translate(-5000, -5000)"/></linearGradient><linearGradient id="tSvgGradient12719b987a4" x1="102.678466796875" x2="102.678466796875" y1="141.3544921875" y2="98.125" fill="rgb(0, 0, 0)" transform="matrix(0.906308, 0.422618, -0.422618, 0.906308, 0, 0)" data-v-fde0c5aa="" gradientTransform="" gradientUnits="userSpaceOnUse"><stop offset="0" stop-color="hsl(0,0%,63.13999999999999%)" stop-opacity="1" transform="translate(-5000, -5000)"/><stop offset="1" stop-color="hsl(0,0%,0%)" stop-opacity="1" transform="translate(-5000, -5000)"/></linearGradient><linearGradient id="tSvgGradient112719bd998" x1="102.6787109375" x2="102.6787109375" y1="152.1611328125" y2="128.38671875" fill="rgb(0, 0, 0)" transform="matrix(0.906308, 0.422618, -0.422618, 0.906308, 0, 0)" data-v-fde0c5aa="" gradientTransform="" gradientUnits="userSpaceOnUse"><stop offset="0" stop-color="hsl(0,0%,63.13999999999999%)" stop-opacity="1" transform="translate(-5000, -5000)"/><stop offset="1" stop-color="hsl(0,0%,0%)" stop-opacity="1" transform="translate(-5000, -5000)"/></linearGradient><linearGradient id="tSvgGradient11452c5a9ca" x1="166.214111328125" x2="166.214111328125" y1="86.45654296875" y2="17.29345703125" fill="rgb(0, 0, 0)" transform="matrix(0.906308, 0.422618, -0.422618, 0.906308, 0, 0)" data-v-fde0c5aa="" gradientTransform="" gradientUnits="userSpaceOnUse"><stop offset="0" stop-color="hsl(0,0%,0%)" stop-opacity="1" transform="translate(-5000, -5000)"/><stop offset="1" stop-color="hsl(0,0%,63.13999999999999%)" stop-opacity="1" transform="translate(-5000, -5000)"/></linearGradient><linearGradient id="tSvgGradientc1fb5b55cc" x1="21.61669921875" x2="21.61669921875" y1="103.7470703125" y2="51.87158203125" fill="rgb(0, 0, 0)" transform="matrix(0.906308, 0.422618, -0.422618, 0.906308, 0, 0)" data-v-fde0c5aa="" gradientTransform="" gradientUnits="userSpaceOnUse"><stop offset="0" stop-color="hsl(0,0%,63.13999999999999%)" stop-opacity="1" transform="translate(-5000, -5000)"/><stop offset="1" stop-color="hsl(0,0%,0%)" stop-opacity="1" transform="translate(-5000, -5000)"/></linearGradient><linearGradient id="tSvgGradient10ba8a69b1e" x1="38.90576171875" x2="38.90576171875" y1="64.84619140625" y2="34.58447265625" fill="rgb(0, 0, 0)" transform="matrix(0.906308, 0.422618, -0.422618, 0.906308, 0, 0)" data-v-fde0c5aa="" gradientTransform="" gradientUnits="userSpaceOnUse"><stop offset="0" stop-color="hsl(0,0%,63.13999999999999%)" stop-opacity="1" transform="translate(-5000, -5000)"/><stop offset="1" stop-color="hsl(0,0%,0%)" stop-opacity="1" transform="translate(-5000, -5000)"/></linearGradient><linearGradient id="tSvgGradient103b2a7003e" x1="67.0048828125" x2="67.0048828125" y1="95.1015625" y2="12.97119140625" fill="rgb(0, 0, 0)" transform="matrix(0.906308, 0.422618, -0.422618, 0.906308, 0, 0)" data-v-fde0c5aa="" gradientTransform="" gradientUnits="userSpaceOnUse"><stop offset="0" stop-color="hsl(0,0%,63.13999999999999%)" stop-opacity="1" transform="translate(-5000, -5000)"/><stop offset="1" stop-color="hsl(0,0%,0%)" stop-opacity="1" transform="translate(-5000, -5000)"/></linearGradient><linearGradient id="tSvgGradient2b5189ce8a" x1="62.68212890625" x2="62.68212890625" y1="17.29345703125" y2="0.0029296875" fill="rgb(0, 0, 0)" transform="matrix(0.906308, 0.422618, -0.422618, 0.906308, 0, 0)" data-v-fde0c5aa="" gradientTransform="" gradientUnits="userSpaceOnUse"><stop offset="0" stop-color="hsl(0,0%,63.13999999999999%)" stop-opacity="1" transform="translate(-5000, -5000)"/><stop offset="1" stop-color="hsl(0,0%,0%)" stop-opacity="1" transform="translate(-5000, -5000)"/></linearGradient><linearGradient id="tSvgGradient52e2901677" x1="62.681884765625" x2="62.681884765625" y1="43.2294921875" y2="0" fill="rgb(0, 0, 0)" transform="matrix(0.906308, 0.422618, -0.422618, 0.906308, 0, 0)" data-v-fde0c5aa="" gradientTransform="" gradientUnits="userSpaceOnUse"><stop offset="0" stop-color="hsl(0,0%,63.13999999999999%)" stop-opacity="1" transform="translate(-5000, -5000)"/><stop offset="1" stop-color="hsl(0,0%,0%)" stop-opacity="1" transform="translate(-5000, -5000)"/></linearGradient><linearGradient id="tSvgGradientefbd229592" x1="62.68212890625" x2="62.68212890625" y1="54.0361328125" y2="30.26171875" fill="rgb(0, 0, 0)" transform="matrix(0.906308, 0.422618, -0.422618, 0.906308, 0, 0)" data-v-fde0c5aa="" gradientTransform="" gradientUnits="userSpaceOnUse"><stop offset="0" stop-color="hsl(0,0%,63.13999999999999%)" stop-opacity="1" transform="translate(-5000, -5000)"/><stop offset="1" stop-color="hsl(0,0%,0%)" stop-opacity="1" transform="translate(-5000, -5000)"/></linearGradient></defs></svg>